# xmcd
#
# Track frame offsets:
#	150
#	18421
#	31353
#	49763
#	68159
#	82989
#	100515
#	114606
#	126482
#	141103
#	158019
#	169408
#	177331
#
# Disc length: 2617 seconds
#
# Revision: 0
# Processed by: cddbd v1.5.2PL0 Copyright (c) Steve Scherf et al.
# Submitted via: dBpowerAMP V4.0
#
DISCID=aa0a370d
DTITLE=Nina Hagen - Personal Jesus
DYEAR=2010
DGENRE=Country
TTITLE0=01 - God's Radar
TTITLE1=02 - I'll Live Again
TTITLE2=03 - Personal Jesus
TTITLE3=04 - Nobody's Fault But Mine
TTITLE4=05 - Down At The Cross
TTITLE5=06 - Just A Little Talk With Jesus
TTITLE6=07 - Mean Old World
TTITLE7=08 - Help Me
TTITLE8=09 - Take Jesus With You
TTITLE9=10 - On The Battlefield
TTITLE10=11 - Run On
TTITLE11=12 - All You Fascists Bound To Lose
TTITLE12=13 - Sometimes I Ring Up Heaven
EXTD=
EXTT0=
EXTT1=
EXTT2=
EXTT3=
EXTT4=
EXTT5=
EXTT6=
EXTT7=
EXTT8=
EXTT9=
EXTT10=
EXTT11=
EXTT12=
PLAYORDER=
